<svg height="41.947" width="370" style="width:370px;height:41.9472px;position:absolute;top:50%;left:50%;z-index:0;cursor:pointer;overflow:visible;transform:translate(-50%,-50%) scale(.562162)"><defs><linearGradient id="a"><stop stop-color="#ef4136" offset="0"/><stop stop-color="#fbb040" offset="1"/></linearGradient></defs><g transform="matrix(.80203 0 0 .80203 -1.04 -15.225)" fill="url(#a)"><path xmlns="http://www.w3.org/2000/svg" d="M86.718 19.658C82.932 17.805 74.7 38.845 65.384 39.941c-9.317 1.096-16.858-.528-17.698 1.245-.84 1.771-1.23 2.025 4.457 2.192 5.688.169 8.553 1.295 6.733 5.481-1.817 4.188-7.588 21.173-7.588 21.173s-.037 1.469 2.034 1.225c2.07-.243 5.477-15.907 12.443-17.354 6.967-1.444 9.021 7.095 10.336 7.568 1.314.473 4.189-.076 2.121-3.388s-5.949-13.099-4.533-15.358c1.412-2.256 13.638-17.911 13.638-17.911s3.179-3.302-.609-5.156z"/><circle xmlns="http://www.w3.org/2000/svg" cx="62.332" cy="27.069" r="8.086"/><path xmlns="http://www.w3.org/2000/svg" d="M2.268 35.794c2.813-3.142 18.348 13.261 27.395 10.774s15.423-6.825 16.871-5.5c1.442 1.325 1.899 1.416-3.308 3.709-5.207 2.292-7.436 4.414-4.178 7.607 3.257 3.197 14.989 16.771 14.989 16.771s.585 1.348-1.426 1.898c-2.01.553-11.054-12.684-18.054-11.402-7.003 1.274-5.693 9.962-6.735 10.894-1.042.935-3.91 1.509-3.238-2.338.672-3.849.589-14.376-1.569-15.937C20.856 50.711 3.644 40.8 3.644 40.8s-4.188-1.865-1.376-5.006z"/><circle xmlns="http://www.w3.org/2000/svg" cx="28.257" cy="37.112" r="8.086"/></g><path d="m126.449 39.245-.356-.254c-2.847-1.677-6.202-1.779-9.252-.559-2.288.915-4.88 1.474-7.524 1.474C98.642 39.906 90 31.926 90 21.453S98.642 3 109.317 3h1.932c6.609 0 12.506 3.914 15.149 9.913h-7.524c-3.66-5.592-9.404-8.795-14.59-7.575-6.862 1.627-9.302 9.76-6.506 18.911 2.796 9.252 9.76 15.047 16.572 13.42 2.694-.66 4.88-2.44 6.304-4.829v-7.422h-5.135v-2.541h10.93v16.368zm3.965 0v-1.27c1.728-1.881 2.593-4.22 2.593-6.761v-8.388c0-2.491-.865-4.88-2.593-6.66v-1.474h8.184v2.644c1.576-1.576 4.576-2.796 6.66-2.796 2.186 0 3.71.813 3.71.813l-1.067 4.626s-2.287-1.881-5.083-1.881c-3.711 0-4.22 2.491-4.22 3.152v9.964c0 2.541.966 4.88 2.593 6.76v1.271h-10.777zm20.029-12.15c0-7.675 6.202-12.606 13.268-12.606 7.168 0 13.522 4.778 13.522 12.607 0 7.88-6.354 12.607-13.522 12.607-7.066 0-13.268-4.88-13.268-12.607zm6.507 1.678c1.728 5.897 5.948 10.015 10.065 9.05 4.016-.967 5.897-6.457 4.067-12.405-1.728-5.795-6.354-9.81-10.523-8.896-4.016.915-5.388 6.304-3.61 12.251zm33.195 10.472-7.625-19.622c-.203-.508-.407-.762-.712-1.118l-2.236-2.39v-1.423h9.607v1.423l-.66 1.424c-.458.966-.458 1.932-.102 2.897l6.303 16.115 4.982-12.81c1.17-2.898 1.17-6.1 0-9.049h5.592l8.49 21.96 6.557-16.826c.458-1.27.204-2.694-.813-3.558v-1.576h6.202v1.576l-1.983 1.27c-.61.408-.915.916-1.169 1.577l-7.778 20.13h-5.592l-6.76-17.385-6.813 17.385h-5.49zm40.72-8.947V16.776h-3.763v-2.084h3.762V6.253l5.541-2.643v11.082h3.66v2.084h-3.66v13.217c0 1.983.763 3.711 1.729 4.982a6.166 6.166 0 0 0 1.931 1.729V39.5c-1.169-.051-2.389-.305-3.66-.814-2.948-1.22-5.54-3.71-5.54-8.388zm11.945 8.947v-1.372a9.645 9.645 0 0 0 2.695-6.66v-19.47c0-2.44-.966-4.829-2.695-6.608V3.661h8.236v12.912c1.83-1.322 4.016-2.033 6.1-2.033 5.999 0 11.743 3.609 11.743 12.403v4.27c0 2.44.864 4.88 2.592 6.66v1.372h-10.726v-1.372c1.678-1.78 2.593-4.22 2.593-6.609V27.96c0-4.677-3.203-12.709-9.659-11.235-1.576.356-2.643 2.136-2.643 3.762v10.777c0 2.39.864 4.83 2.592 6.609v1.372H242.81zm31.518 0v-1.372c1.678-1.78 2.593-4.169 2.593-6.66v-19.47c0-2.49-.915-4.88-2.593-6.659V3.661h15.505c5.744 0 10.726 4.423 11.031 10.065.509 6.304-4.422 11.641-10.675 11.641h-7.778v5.847c0 2.49 1.017 4.88 2.694 6.659v1.372h-10.777zm8.083-15.606h5.999c5.083 0 9.252-4.067 9.252-9.15s-4.169-9.201-9.252-9.201h-5.999v18.351zm39.855 15.606-1.373-.355c-2.287-.61-4.778-.61-6.913.05-.865.255-1.678.305-2.491.305-4.982 0-8.947-3.914-8.947-8.845 0-4.83 3.965-8.794 8.947-8.794 1.982 0 3.762.61 5.134 1.576v-.051s.407-6.202-2.338-6.965c-2.847-.813-3.864.865-5.948 4.016l-4.27-.05c1.322-3.356 3.914-5.694 7.574-5.694 1.373 0 2.796.254 4.169.66 0 0 6.456 1.983 6.456 8.033v16.114zm-15.607-7.574c1.17 3.813 4.067 6.507 7.016 5.846 2.846-.66 4.168-4.372 2.999-8.337-1.118-3.762-4.423-6.456-7.27-5.744-2.897.711-3.914 4.372-2.745 8.235zm22.724-1.373V16.776h-3.762v-2.084h3.762V6.253l5.54-2.643v11.082h3.66v2.084h-3.66v13.217c0 1.983.763 3.711 1.73 4.982a6.166 6.166 0 0 0 1.93 1.729V39.5c-1.168-.051-2.388-.305-3.66-.814-2.948-1.22-5.54-3.71-5.54-8.388zm11.946 8.947v-1.372a9.645 9.645 0 0 0 2.694-6.66v-19.47c0-2.44-.966-4.829-2.694-6.608V3.661h8.235v12.912c1.83-1.322 4.016-2.033 6.1-2.033 5.999 0 11.743 3.609 11.743 12.403v4.27c0 2.44.865 4.88 2.593 6.66v1.372h-10.726v-1.372c1.677-1.78 2.592-4.22 2.592-6.609V27.96c0-4.677-3.202-12.709-9.658-11.235-1.576.356-2.644 2.136-2.644 3.762v10.777c0 2.39.864 4.83 2.593 6.609v1.372h-10.828z" fill="#393e46"/></svg>