<svg xmlns="http://www.w3.org/2000/svg" width="370" height="42" fill="none" viewBox="0 0 370 42"><defs id="SvgjsDefs1184"><linearGradient id="SvgjsLinearGradient1189"><stop id="SvgjsStop1190" stop-color="#ef4136" offset="0"></stop><stop id="SvgjsStop1191" stop-color="#fbb040" offset="1"></stop></linearGradient></defs><g id="SvgjsG1185" featurekey="Df7oLJ-0" transform="matrix(0.8020283580256464,0,0,0.8020283580256464,-1.0399618721314499,-15.224904161307085)" fill="url(#SvgjsLinearGradient1189)"><path xmlns="http://www.w3.org/2000/svg" d="M86.718,19.658C82.932,17.805,74.7,38.845,65.384,39.941c-9.317,1.096-16.858-0.528-17.698,1.245  c-0.84,1.771-1.23,2.025,4.457,2.192c5.688,0.169,8.553,1.295,6.733,5.481c-1.817,4.188-7.588,21.173-7.588,21.173  s-0.037,1.469,2.034,1.225c2.07-0.243,5.477-15.907,12.443-17.354c6.967-1.444,9.021,7.095,10.336,7.568  c1.314,0.473,4.189-0.076,2.121-3.388s-5.949-13.099-4.533-15.358c1.412-2.256,13.638-17.911,13.638-17.911  S90.506,21.512,86.718,19.658z"></path><circle xmlns="http://www.w3.org/2000/svg" cx="62.332" cy="27.069" r="8.086"></circle><path xmlns="http://www.w3.org/2000/svg" d="M2.268,35.794c2.813-3.142,18.348,13.261,27.395,10.774c9.047-2.487,15.423-6.825,16.871-5.5  c1.442,1.325,1.899,1.416-3.308,3.709c-5.207,2.292-7.436,4.414-4.178,7.607c3.257,3.197,14.989,16.771,14.989,16.771  s0.585,1.348-1.426,1.898c-2.01,0.553-11.054-12.684-18.054-11.402c-7.003,1.274-5.693,9.962-6.735,10.894  c-1.042,0.935-3.91,1.509-3.238-2.338c0.672-3.849,0.589-14.376-1.569-15.937C20.856,50.711,3.644,40.8,3.644,40.8  S-0.544,38.935,2.268,35.794z"></path><circle xmlns="http://www.w3.org/2000/svg" cx="28.257" cy="37.112" r="8.086"></circle></g><g id="SvgjsG1186" featurekey="Ua4uQk-0" transform="matrix(2.54175753525669,0,0,2.54175753525669,88.37327794080583,-11.589687670611271)" fill="#393e46"><path d="M14.98 20 l-0.14 -0.1 c-1.12 -0.66 -2.44 -0.7 -3.64 -0.22 c-0.9 0.36 -1.92 0.58 -2.96 0.58 c-4.2 0 -7.6 -3.14 -7.6 -7.26 s3.4 -7.26 7.6 -7.26 l0.76 0 c2.6 0 4.92 1.54 5.96 3.9 l-2.96 0 c-1.44 -2.2 -3.7 -3.46 -5.74 -2.98 c-2.7 0.64 -3.66 3.84 -2.56 7.44 c1.1 3.64 3.84 5.92 6.52 5.28 c1.06 -0.26 1.92 -0.96 2.48 -1.9 l0 -2.92 l-2.02 0 l0 -1 l4.3 0 l0 6.44 z M16.54 20 l0 -0.5 c0.68 -0.74 1.02 -1.66 1.02 -2.66 l0 -3.3 c0 -0.98 -0.34 -1.92 -1.02 -2.62 l0 -0.58 l3.22 0 l0 1.04 c0.62 -0.62 1.8 -1.1 2.62 -1.1 c0.86 0 1.46 0.32 1.46 0.32 l-0.42 1.82 s-0.9 -0.74 -2 -0.74 c-1.46 0 -1.66 0.98 -1.66 1.24 l0 3.92 c0 1 0.38 1.92 1.02 2.66 l0 0.5 l-4.24 0 z M24.42 15.219999999999999 c0 -3.02 2.44 -4.96 5.22 -4.96 c2.82 0 5.32 1.88 5.32 4.96 c0 3.1 -2.5 4.96 -5.32 4.96 c-2.78 0 -5.22 -1.92 -5.22 -4.96 z M26.980000000000004 15.879999999999999 c0.68 2.32 2.34 3.94 3.96 3.56 c1.58 -0.38 2.32 -2.54 1.6 -4.88 c-0.68 -2.28 -2.5 -3.86 -4.14 -3.5 c-1.58 0.36 -2.12 2.48 -1.42 4.82 z M40.04 20 l-3 -7.72 c-0.08 -0.2 -0.16 -0.3 -0.28 -0.44 l-0.88 -0.94 l0 -0.56 l3.78 0 l0 0.56 l-0.26 0.56 c-0.18 0.38 -0.18 0.76 -0.04 1.14 l2.48 6.34 l1.96 -5.04 c0.46 -1.14 0.46 -2.4 0 -3.56 l2.2 0 l3.34 8.64 l2.58 -6.62 c0.18 -0.5 0.08 -1.06 -0.32 -1.4 l0 -0.62 l2.44 0 l0 0.62 l-0.78 0.5 c-0.24 0.16 -0.36 0.36 -0.46 0.62 l-3.06 7.92 l-2.2 0 l-2.66 -6.84 l-2.68 6.84 l-2.16 0 z M56.06 16.48 l0 -5.32 l-1.48 0 l0 -0.82 l1.48 0 l0 -3.32 l2.18 -1.04 l0 4.36 l1.44 0 l0 0.82 l-1.44 0 l0 5.2 c0 0.78 0.3 1.46 0.68 1.96 c0.22 0.3 0.48 0.52 0.76 0.68 l0 1.1 c-0.46 -0.02 -0.94 -0.12 -1.44 -0.32 c-1.16 -0.48 -2.18 -1.46 -2.18 -3.3 z M60.760000000000005 20 l0 -0.54 c0.68 -0.7 1.06 -1.66 1.06 -2.62 l0 -7.66 c0 -0.96 -0.38 -1.9 -1.06 -2.6 l0 -0.58 l3.24 0 l0 5.08 c0.72 -0.52 1.58 -0.8 2.4 -0.8 c2.36 0 4.62 1.42 4.62 4.88 l0 1.68 c0 0.96 0.34 1.92 1.02 2.62 l0 0.54 l-4.22 0 l0 -0.54 c0.66 -0.7 1.02 -1.66 1.02 -2.6 l0 -1.3 c0 -1.84 -1.26 -5 -3.8 -4.42 c-0.62 0.14 -1.04 0.84 -1.04 1.48 l0 4.24 c0 0.94 0.34 1.9 1.02 2.6 l0 0.54 l-4.26 0 z M73.16000000000001 20 l0 -0.54 c0.66 -0.7 1.02 -1.64 1.02 -2.62 l0 -7.66 c0 -0.98 -0.36 -1.92 -1.02 -2.62 l0 -0.56 l6.1 0 c2.26 0 4.22 1.74 4.34 3.96 c0.2 2.48 -1.74 4.58 -4.2 4.58 l-3.06 0 l0 2.3 c0 0.98 0.4 1.92 1.06 2.62 l0 0.54 l-4.24 0 z M76.34 13.86 l2.36 0 c2 0 3.64 -1.6 3.64 -3.6 s-1.64 -3.62 -3.64 -3.62 l-2.36 0 l0 7.22 z M92.02000000000001 20 l-0.54 -0.14 c-0.9 -0.24 -1.88 -0.24 -2.72 0.02 c-0.34 0.1 -0.66 0.12 -0.98 0.12 c-1.96 0 -3.52 -1.54 -3.52 -3.48 c0 -1.9 1.56 -3.46 3.52 -3.46 c0.78 0 1.48 0.24 2.02 0.62 l0 -0.02 s0.16 -2.44 -0.92 -2.74 c-1.12 -0.32 -1.52 0.34 -2.34 1.58 l-1.68 -0.02 c0.52 -1.32 1.54 -2.24 2.98 -2.24 c0.54 0 1.1 0.1 1.64 0.26 c0 0 2.54 0.78 2.54 3.16 l0 6.34 z M85.88 17.02 c0.46 1.5 1.6 2.56 2.76 2.3 c1.12 -0.26 1.64 -1.72 1.18 -3.28 c-0.44 -1.48 -1.74 -2.54 -2.86 -2.26 c-1.14 0.28 -1.54 1.72 -1.08 3.24 z M94.82000000000001 16.48 l0 -5.32 l-1.48 0 l0 -0.82 l1.48 0 l0 -3.32 l2.18 -1.04 l0 4.36 l1.44 0 l0 0.82 l-1.44 0 l0 5.2 c0 0.78 0.3 1.46 0.68 1.96 c0.22 0.3 0.48 0.52 0.76 0.68 l0 1.1 c-0.46 -0.02 -0.94 -0.12 -1.44 -0.32 c-1.16 -0.48 -2.18 -1.46 -2.18 -3.3 z M99.52 20 l0 -0.54 c0.68 -0.7 1.06 -1.66 1.06 -2.62 l0 -7.66 c0 -0.96 -0.38 -1.9 -1.06 -2.6 l0 -0.58 l3.24 0 l0 5.08 c0.72 -0.52 1.58 -0.8 2.4 -0.8 c2.36 0 4.62 1.42 4.62 4.88 l0 1.68 c0 0.96 0.34 1.92 1.02 2.62 l0 0.54 l-4.22 0 l0 -0.54 c0.66 -0.7 1.02 -1.66 1.02 -2.6 l0 -1.3 c0 -1.84 -1.26 -5 -3.8 -4.42 c-0.62 0.14 -1.04 0.84 -1.04 1.48 l0 4.24 c0 0.94 0.34 1.9 1.02 2.6 l0 0.54 l-4.26 0 z"></path></g></svg>